<?xml version="1.0" encoding="UTF-8"?>
<svg id="Layer_1" xmlns="http://www.w3.org/2000/svg" version="1.1" viewBox="0 0 595.3 841.9">
  <!-- Generator: Adobe Illustrator 30.3.0, SVG Export Plug-In . SVG Version: 2.1.3 Build 182)  -->
  <path d="M198.5,451.4l-10.5,2.8,4.8-30.6,5.7,27.8ZM133.4,458.1l-5,1.4-.2-17.2,4.2-1.1c5.1-1.4,8.1-.2,8.7,3.8.6,4,.1,11.1-7.7,13.2M204,478.4l20.6-5.5-19.7-65.5-23.3,6.3-17.6,72.1-14.1-21.4c11.2-9.7,12.2-17.6,10.9-26.7-1.8-12.2-11.2-15.4-28-10.9l-24.1,6.5.6,70.7,19.4-5.2-.3-25.2,3.9-1.1,12.4,21.9,18.3-4.9h0s20.3-5.5,20.3-5.5l2.3-14.4,15.7-4.2,2.6,13ZM250.8,451l-3.8,1-.3-41.2,4-1.1c6.7-1.8,10.7-.1,12,9.1,1.7,11.4,1.6,28.6-12,32.2M282.7,413.2c-3.1-20.9-18.5-21.9-34.8-17.5l-20.9,5.6.6,70.7,22.2-6c29.9-8.1,36-30.4,32.8-52.8M291.3,454.8l19.4-5.2-.6-70.7-19.4,5.2.6,70.7ZM320.4,447l19.4-5.2-.6-70.7-19.4,5.2.6,70.7ZM413,393.6l-10.5,2.8,4.8-30.6,5.7,27.8ZM418.4,420.6l20.6-5.5-19.7-65.5-23.3,6.3-17.6,72-18.8-29.7,18.3-37.4-20.2,5.4-17.8,37.9,18.4,32.8,19.1-5.1,20.3-5.5,2.3-14.4,15.7-4.2,2.6,13ZM486.2,386.2l-24.7,6.7-.5-54.6-19.4,5.2.7,70.7,42.2-11.4,1.8-16.6Z" fill="#1d1d1b"/>
  <path d="M302.9,347.4c-.7,0-1.4.1-2.1.3-5,1.3-9.2,6.6-9.2,11.5s.7,3.5,1.9,4.4c1.3,1,3.2,1.3,5.3.7,5-1.3,9.2-6.6,9.2-11.5s-.7-3.5-1.9-4.4c-.9-.7-2-1-3.2-1M296.7,372c-2.9,0-5.6-.9-7.8-2.5-3.1-2.4-4.8-6-4.8-10.3,0-8.3,6.5-16.5,14.7-18.7,4.4-1.2,8.7-.4,11.8,2,3.1,2.4,4.8,6,4.8,10.3,0,8.3-6.5,16.5-14.7,18.7-1.4.4-2.7.5-4,.5" fill="#1d1d1b"/>
</svg>