<?xml version="1.0" encoding="UTF-8"?>
<svg id="Layer_1" xmlns="http://www.w3.org/2000/svg" version="1.1" viewBox="0 0 595.3 841.9">
  <!-- Generator: Adobe Illustrator 30.3.0, SVG Export Plug-In . SVG Version: 2.1.3 Build 182)  -->
  <g>
    <polygon points="-114.7 -143.5 -87.6 -148.3 -623.7 1148.4 -650.8 1153.2 -114.7 -143.5" fill="#1d1d1b"/>
    <polygon points="-87.6 -148.3 -60.5 -153.1 -596.5 1143.6 -623.7 1148.4 -87.6 -148.3" fill="#ffed00"/>
  </g>
  <g>
    <polygon points="-60.5 -153.1 -33.3 -157.9 -569.4 1138.9 -596.5 1143.6 -60.5 -153.1" fill="#1d1d1b"/>
    <polygon points="-33.3 -157.9 -6.2 -162.6 -542.3 1134.1 -569.4 1138.9 -33.3 -157.9" fill="#ffed00"/>
  </g>
  <g>
    <polygon points="-6.2 -162.6 20.9 -167.4 -515.1 1129.3 -542.3 1134.1 -6.2 -162.6" fill="#1d1d1b"/>
    <polygon points="20.9 -167.4 48.1 -172.2 -488 1124.5 -515.1 1129.3 20.9 -167.4" fill="#ffed00"/>
  </g>
  <g>
    <polygon points="48.1 -172.2 75.2 -177 -460.9 1119.7 -488 1124.5 48.1 -172.2" fill="#1d1d1b"/>
    <polygon points="75.2 -177 102.3 -181.8 -433.7 1114.9 -460.9 1119.7 75.2 -177" fill="#ffed00"/>
  </g>
  <g>
    <polygon points="102.3 -181.8 129.5 -186.6 -406.6 1110.1 -433.7 1114.9 102.3 -181.8" fill="#1d1d1b"/>
    <polygon points="129.5 -186.6 156.6 -191.3 -379.5 1105.4 -406.6 1110.1 129.5 -186.6" fill="#ffed00"/>
  </g>
  <g>
    <polygon points="156.6 -191.3 183.7 -196.1 -352.3 1100.6 -379.5 1105.4 156.6 -191.3" fill="#1d1d1b"/>
    <polygon points="183.7 -196.1 210.9 -200.9 -325.2 1095.8 -352.3 1100.6 183.7 -196.1" fill="#ffed00"/>
  </g>
  <g>
    <polygon points="210.9 -200.9 238 -205.7 -298 1091 -325.2 1095.8 210.9 -200.9" fill="#1d1d1b"/>
    <polygon points="238 -205.7 265.2 -210.5 -270.9 1086.2 -298 1091 238 -205.7" fill="#ffed00"/>
  </g>
  <g>
    <polygon points="265.2 -210.5 292.3 -215.3 -243.8 1081.4 -270.9 1086.2 265.2 -210.5" fill="#1d1d1b"/>
    <polygon points="292.3 -215.3 319.4 -220.1 -216.6 1076.7 -243.8 1081.4 292.3 -215.3" fill="#ffed00"/>
  </g>
  <g>
    <polygon points="319.4 -220.1 346.6 -224.8 -189.5 1071.9 -216.6 1076.7 319.4 -220.1" fill="#1d1d1b"/>
    <polygon points="346.6 -224.8 373.7 -229.6 -162.4 1067.1 -189.5 1071.9 346.6 -224.8" fill="#ffed00"/>
  </g>
  <g>
    <polygon points="373.7 -229.6 400.8 -234.4 -135.2 1062.3 -162.4 1067.1 373.7 -229.6" fill="#1d1d1b"/>
    <polygon points="400.8 -234.4 428 -239.2 -108.1 1057.5 -135.2 1062.3 400.8 -234.4" fill="#ffed00"/>
  </g>
  <g>
    <polygon points="428 -239.2 455.1 -244 -81 1052.7 -108.1 1057.5 428 -239.2" fill="#1d1d1b"/>
    <polygon points="455.1 -244 482.2 -248.8 -53.8 1047.9 -81 1052.7 455.1 -244" fill="#ffed00"/>
  </g>
  <g>
    <polygon points="482.2 -248.8 509.4 -253.6 -26.7 1043.2 -53.8 1047.9 482.2 -248.8" fill="#1d1d1b"/>
    <polygon points="509.4 -253.6 536.5 -258.3 .4 1038.4 -26.7 1043.2 509.4 -253.6" fill="#ffed00"/>
  </g>
  <g>
    <polygon points="536.5 -258.3 563.6 -263.1 27.6 1033.6 .4 1038.4 536.5 -258.3" fill="#1d1d1b"/>
    <polygon points="563.6 -263.1 590.8 -267.9 54.7 1028.8 27.6 1033.6 563.6 -263.1" fill="#ffed00"/>
  </g>
  <g>
    <polygon points="590.8 -267.9 617.9 -272.7 81.9 1024 54.7 1028.8 590.8 -267.9" fill="#1d1d1b"/>
    <polygon points="617.9 -272.7 645.1 -277.5 109 1019.2 81.9 1024 617.9 -272.7" fill="#ffed00"/>
  </g>
  <g>
    <polygon points="645.1 -277.5 672.2 -282.3 136.1 1014.4 109 1019.2 645.1 -277.5" fill="#1d1d1b"/>
    <polygon points="672.2 -282.3 699.3 -287 163.3 1009.7 136.1 1014.4 672.2 -282.3" fill="#ffed00"/>
  </g>
  <g>
    <polygon points="699.3 -287 726.5 -291.8 190.4 1004.9 163.3 1009.7 699.3 -287" fill="#1d1d1b"/>
    <polygon points="726.5 -291.8 753.6 -296.6 217.5 1000.1 190.4 1004.9 726.5 -291.8" fill="#ffed00"/>
  </g>
  <g>
    <polygon points="753.6 -296.6 780.7 -301.4 244.7 995.3 217.5 1000.1 753.6 -296.6" fill="#1d1d1b"/>
    <polygon points="780.7 -301.4 807.9 -306.2 271.8 990.5 244.7 995.3 780.7 -301.4" fill="#ffed00"/>
  </g>
  <g>
    <polygon points="807.9 -306.2 835 -311 298.9 985.7 271.8 990.5 807.9 -306.2" fill="#1d1d1b"/>
    <polygon points="835 -311 862.1 -315.8 326.1 981 298.9 985.7 835 -311" fill="#ffed00"/>
  </g>
  <g>
    <polygon points="862.1 -315.8 889.3 -320.5 353.2 976.2 326.1 981 862.1 -315.8" fill="#1d1d1b"/>
    <polygon points="889.3 -320.5 916.4 -325.3 380.3 971.4 353.2 976.2 889.3 -320.5" fill="#ffed00"/>
  </g>
  <g>
    <polygon points="916.4 -325.3 943.5 -330.1 407.5 966.6 380.3 971.4 916.4 -325.3" fill="#1d1d1b"/>
    <polygon points="943.5 -330.1 970.7 -334.9 434.6 961.8 407.5 966.6 943.5 -330.1" fill="#ffed00"/>
  </g>
  <g>
    <polygon points="970.7 -334.9 997.8 -339.7 461.8 957 434.6 961.8 970.7 -334.9" fill="#1d1d1b"/>
    <polygon points="997.8 -339.7 1025 -344.5 488.9 952.2 461.8 957 997.8 -339.7" fill="#ffed00"/>
  </g>
  <g>
    <polygon points="1025 -344.5 1052.1 -349.2 516 947.5 488.9 952.2 1025 -344.5" fill="#1d1d1b"/>
    <polygon points="1052.1 -349.2 1079.2 -354 543.2 942.7 516 947.5 1052.1 -349.2" fill="#ffed00"/>
  </g>
  <g>
    <polygon points="1079.2 -354 1106.4 -358.8 570.3 937.9 543.2 942.7 1079.2 -354" fill="#1d1d1b"/>
    <polygon points="1106.4 -358.8 1133.5 -363.6 597.4 933.1 570.3 937.9 1106.4 -358.8" fill="#ffed00"/>
  </g>
  <g>
    <polygon points="1133.5 -363.6 1160.6 -368.4 624.6 928.3 597.4 933.1 1133.5 -363.6" fill="#1d1d1b"/>
    <polygon points="1160.6 -368.4 1187.8 -373.2 651.7 923.5 624.6 928.3 1160.6 -368.4" fill="#ffed00"/>
  </g>
  <g>
    <polygon points="1187.8 -373.2 1214.9 -378 678.8 918.8 651.7 923.5 1187.8 -373.2" fill="#1d1d1b"/>
    <polygon points="1214.9 -378 1242 -382.7 706 914 678.8 918.8 1214.9 -378" fill="#ffed00"/>
  </g>
  <g>
    <polygon points="1242 -382.7 1269.2 -387.5 733.1 909.2 706 914 1242 -382.7" fill="#1d1d1b"/>
    <polygon points="1269.2 -387.5 1296.3 -392.3 760.2 904.4 733.1 909.2 1269.2 -387.5" fill="#ffed00"/>
  </g>
  <g>
    <polygon points="1296.3 -392.3 1323.4 -397.1 787.4 899.6 760.2 904.4 1296.3 -392.3" fill="#1d1d1b"/>
    <polygon points="1323.4 -397.1 1350.6 -401.9 814.5 894.8 787.4 899.6 1323.4 -397.1" fill="#ffed00"/>
  </g>
  <g>
    <polygon points="1350.6 -401.9 1377.7 -406.7 841.6 890 814.5 894.8 1350.6 -401.9" fill="#1d1d1b"/>
    <polygon points="1377.7 -406.7 1404.9 -411.4 868.8 885.3 841.6 890 1377.7 -406.7" fill="#ffed00"/>
  </g>
  <g>
    <polygon points="1404.9 -411.4 1432 -416.2 895.9 880.5 868.8 885.3 1404.9 -411.4" fill="#1d1d1b"/>
    <polygon points="1432 -416.2 1459.1 -421 923.1 875.7 895.9 880.5 1432 -416.2" fill="#ffed00"/>
  </g>
</svg>